<svg xmlns="http://www.w3.org/2000/svg" width="1200" height="800" viewBox="-13.35003 -24.926775 115.70026 149.56065"><path fill="#61a533" d="M75.3083 30.805A30.808 30.808 0 1144.5003 0a30.808 30.808 0 0130.808 30.805m-43.079-6.9068h5.6223a.3276.3276 0 00.316-.316 6.4023 6.4023 0 0112.665 0 .348.348 0 00.3335.316h5.602a.3132.3132 0 00.316-.3132 12.619 12.619 0 00-25.168 0 .3132.3132 0 00.3132.3132m18.323 11.694a12.613 12.613 0 006.53-10.117.3132.3132 0 00-.3161-.3132h-5.634a.3276.3276 0 00-.316.3132 6.4023 6.4023 0 01-12.665 0 .316.316 0 00-.316-.3132h-5.6136a.316.316 0 00-.3161.3132 12.613 12.613 0 006.5299 10.117 12.616 12.616 0 00-6.559 10.755.3132.3132 0 00.3133.316h5.6049a.316.316 0 00.29-.316 6.4023 6.4023 0 0112.79 0 .316.316 0 00.316.316h5.5904a.316.316 0 00.316-.316 12.619 12.619 0 00-6.5444-10.755M75.3083 75.305h-4.9902v23.962h4.7611V85.636l3.062 6.3733H81.18l3.0591-6.353v13.611h4.7611v-23.962h-5.0569l-4.2885 9.2178zm-45.837 0l-3.3925 6.9764-3.3954-6.9764h-5.6252l6.2022 11.964-6.237 11.996h5.6919l3.3635-6.959 3.3635 6.959h5.6919l-6.237-11.996 6.2022-11.964zm29.692 7.4809l1.9456 7.5389H57.18zm4.2537 16.481h4.8597l-6.353-23.962h-5.6832l-6.2486 23.962h4.88l1.1134-4.245h6.3414zm-13.695-9.444v-4.8423h-7.2432V80.176h8.432v-4.8713h-13.327v23.959h4.8626v-9.4411zm-38.823 2.5139c0 1.8528-1.8992 2.4791-3.0127 2.4791-1.1134 0-3.0156-.6263-3.0156-2.4791v-10.099c0-1.8528 1.9021-2.4791 3.0156-2.4791 1.1134 0 3.0127.6263 3.0127 2.4791zm-3.0121-17.47C2.5024 74.8813 0 78.6566 0 81.8635v10.844c0 3.2098 2.5023 6.9851 7.8869 6.9996 5.3845.0145 7.884-3.7898 7.884-6.9996v-10.844c0-3.2069-2.4994-6.9822-7.884-6.9967"/></svg>